<?xml version="1.0" standalone="no"?>
<!DOCTYPE svg PUBLIC "-//W3C//DTD SVG 20010904//EN"
 "http://www.w3.org/TR/2001/REC-SVG-20010904/DTD/svg10.dtd">
<svg version="1.0" xmlns="http://www.w3.org/2000/svg"
 width="3456.000000pt" height="2110.000000pt" viewBox="0 0 3456.000000 2110.000000"
 preserveAspectRatio="xMidYMid meet">

<g transform="translate(0.000000,2110.000000) scale(0.100000,-0.100000)"
fill="#000000" stroke="none">
<path d="M30645 20144 c-27 -2 -115 -8 -195 -14 -280 -20 -637 -61 -885 -101
-249 -40 -630 -115 -735 -146 -30 -8 -98 -25 -150 -38 -351 -82 -914 -274
-1290 -440 -198 -87 -352 -162 -535 -258 -194 -103 -303 -167 -505 -295 -180
-115 -185 -118 -375 -259 -365 -270 -753 -638 -1002 -949 -129 -162 -215 -277
-273 -369 -8 -13 -27 -41 -41 -62 -122 -177 -315 -547 -408 -783 -149 -378
-228 -674 -300 -1135 -38 -237 -50 -728 -27 -1068 14 -211 28 -319 81 -657 18
-114 87 -419 135 -593 47 -175 87 -298 158 -492 140 -383 158 -443 211 -710
91 -452 102 -1018 30 -1535 -44 -320 -160 -764 -286 -1100 -87 -233 -258 -605
-373 -810 -80 -143 -162 -277 -248 -410 -146 -223 -185 -288 -288 -471 -95
-171 -209 -399 -259 -519 -14 -36 -35 -84 -45 -106 -83 -181 -244 -716 -264
-874 -2 -19 -14 -93 -25 -165 -121 -774 31 -1538 428 -2145 290 -445 696 -797
1206 -1045 157 -77 185 -88 408 -165 126 -44 273 -83 467 -124 146 -31 415
-58 641 -63 648 -16 1301 117 1954 397 222 95 512 247 747 391 182 112 520
351 643 456 28 23 84 70 125 104 69 56 147 126 320 284 36 33 88 80 116 105
53 48 120 110 285 262 58 54 115 106 126 115 70 62 273 244 306 275 57 53 602
538 677 602 14 12 124 107 245 212 253 219 533 454 720 604 72 58 132 107 135
110 10 11 269 210 435 335 94 70 180 134 192 143 12 10 60 44 108 77 47 33
119 83 159 111 92 65 452 299 530 345 32 19 73 43 92 54 206 123 576 323 702
379 l42 19 0 5892 0 5891 -47 22 c-27 11 -69 30 -94 41 -25 10 -71 31 -101 45
-30 14 -58 26 -62 26 -4 0 -31 11 -59 24 -323 151 -1080 378 -1452 436 -38 6
-131 22 -205 36 -125 23 -510 69 -795 94 -114 11 -994 22 -1100 14z" fill="#70DBDB"/>
<path d="M0 8875 l0 -5525 127 -152 c611 -732 1329 -1228 2094 -1447 161 -47
382 -94 549 -117 153 -21 626 -30 802 -15 533 47 1068 193 1608 441 739 339
1405 870 1832 1463 398 552 624 1143 700 1832 17 155 17 640 0 805 -54 518
-180 1020 -389 1545 -207 519 -571 946 -1303 1527 -140 111 -245 191 -755 575
-331 250 -368 278 -534 411 -858 687 -1333 1260 -1607 1937 -100 248 -268 563
-429 803 -222 332 -579 699 -890 914 -502 347 -1069 528 -1651 528 l-154 0 0
-5525z" fill="#70DBDB"/>
</g>
</svg>
