<svg version="1.1" id="Layer_1" xmlns="http://www.w3.org/2000/svg" xmlns:xlink="http://www.w3.org/1999/xlink" x="0px" y="0px"
	 width="100%" viewBox="0 0 1333 2000" enable-background="new 0 0 1333 2000" xml:space="preserve">
<path fill="#6FDBDB" opacity="1.000000" stroke="none" 
	d="
M1334.000000,63.000000 
	C1334.000000,454.699371 1334.000000,846.398743 1333.553711,1238.515381 
	C1323.058228,1240.308960 1312.948853,1241.348999 1302.972656,1243.133179 
	C1283.298340,1246.651245 1263.723755,1250.588989 1245.629761,1259.728271 
	C1223.940430,1270.683838 1209.637207,1288.901001 1197.162231,1308.835083 
	C1186.350952,1326.110962 1178.651001,1344.876587 1171.735229,1363.994995 
	C1165.486938,1381.268311 1158.027100,1398.054199 1147.423584,1413.105469 
	C1133.804321,1432.437500 1114.894653,1446.263184 1096.360107,1460.428589 
	C1076.507202,1475.601807 1057.229370,1491.435669 1039.956787,1509.607666 
	C1032.925171,1517.005493 1028.578125,1525.435059 1027.171631,1535.486450 
	C1026.365112,1541.249390 1025.186523,1546.968750 1024.586548,1552.750488 
	C1021.825500,1579.356689 1024.872559,1604.831055 1038.855103,1628.376099 
	C1049.982910,1647.114136 1061.020752,1665.928345 1071.340820,1685.116211 
	C1079.862061,1700.959473 1079.281128,1717.215332 1071.490356,1733.584717 
	C1059.403809,1758.980103 1040.505005,1777.439819 1015.708008,1790.098267 
	C987.012207,1804.747192 956.043884,1811.192871 924.258545,1812.673584 
	C901.212952,1813.747192 877.982849,1813.161621 854.948547,1811.619385 
	C822.509460,1809.447510 790.753845,1802.580811 759.248718,1794.588379 
	C732.969604,1787.921997 706.662354,1781.417847 679.544861,1778.724609 
	C654.235718,1776.210693 629.368286,1777.459351 604.984802,1785.005371 
	C578.758789,1793.121582 557.082336,1807.892822 542.566406,1831.329712 
	C531.017578,1849.976074 521.416138,1869.817627 510.420227,1888.821777 
	C504.020172,1899.883179 497.560272,1911.160767 489.425262,1920.922729 
	C459.904572,1956.347046 420.100922,1970.894165 375.467316,1973.866455 
	C339.483398,1976.263062 304.583221,1969.504272 270.157532,1959.403687 
	C220.927246,1944.959473 173.772278,1925.382080 128.010712,1902.409790 
	C86.745644,1881.694702 46.941910,1858.386353 8.386570,1832.961060 
	C6.063829,1831.429321 3.468515,1830.310791 1.000006,1829.000000 
	C1.000000,1430.300537 1.000000,1031.601196 1.382981,632.361816 
	C44.760025,621.271667 88.536133,616.025085 132.608322,613.280945 
	C159.027618,611.636047 185.522919,611.232361 211.979874,610.166931 
	C252.574951,608.532166 293.206299,607.441223 333.744690,604.887512 
	C358.620300,603.320374 383.508759,600.411438 408.103699,596.358582 
	C433.860718,592.114197 459.422241,586.393311 484.805634,580.231934 
	C537.111633,567.535461 587.215149,548.481445 635.831299,525.533020 
	C689.690002,500.109924 740.288391,468.852905 791.350769,438.396149 
	C810.613586,426.906586 830.640442,416.561554 850.921265,406.967926 
	C862.412170,401.532288 875.310181,399.161621 887.251648,394.570953 
	C924.769043,380.148132 963.802124,371.783020 1003.256714,365.217926 
	C1034.934814,359.946838 1066.813721,355.824646 1097.769409,346.872040 
	C1117.908813,341.047577 1136.960327,333.054352 1153.693970,320.035217 
	C1178.557007,300.691071 1196.371582,275.677063 1210.747925,248.192001 
	C1223.242920,224.303909 1234.455811,199.745575 1246.250244,175.490707 
	C1259.506470,148.229675 1272.670044,120.929741 1292.278076,97.390602 
	C1304.037964,83.273079 1317.988403,71.910599 1334.000000,63.000000 
z"/>
<path fill="#FFFFFF" opacity="1.000000" stroke="none" 
	d="
M1334.000000,62.531342 
	C1317.988403,71.910599 1304.037964,83.273079 1292.278076,97.390602 
	C1272.670044,120.929741 1259.506470,148.229675 1246.250244,175.490707 
	C1234.455811,199.745575 1223.242920,224.303909 1210.747925,248.192001 
	C1196.371582,275.677063 1178.557007,300.691071 1153.693970,320.035217 
	C1136.960327,333.054352 1117.908813,341.047577 1097.769409,346.872040 
	C1066.813721,355.824646 1034.934814,359.946838 1003.256714,365.217926 
	C963.802124,371.783020 924.769043,380.148132 887.251648,394.570953 
	C875.310181,399.161621 862.412170,401.532288 850.921265,406.967926 
	C830.640442,416.561554 810.613586,426.906586 791.350769,438.396149 
	C740.288391,468.852905 689.690002,500.109924 635.831299,525.533020 
	C587.215149,548.481445 537.111633,567.535461 484.805634,580.231934 
	C459.422241,586.393311 433.860718,592.114197 408.103699,596.358582 
	C383.508759,600.411438 358.620300,603.320374 333.744690,604.887512 
	C293.206299,607.441223 252.574951,608.532166 211.979874,610.166931 
	C185.522919,611.232361 159.027618,611.636047 132.608322,613.280945 
	C88.536133,616.025085 44.760025,621.271667 1.382981,631.910889 
	C1.000000,421.712067 1.000000,211.424149 1.000000,1.068113 
	C445.333313,1.068113 889.666687,1.068113 1334.000000,1.072000 
	C1334.000000,21.404819 1334.000000,41.733753 1334.000000,62.531342 
z"/>
<path fill="#FFFFFF" opacity="1.000000" stroke="none" 
	d="
M1.000006,1829.468628 
	C3.468515,1830.310791 6.063829,1831.429321 8.386570,1832.961060 
	C46.941910,1858.386353 86.745644,1881.694702 128.010712,1902.409790 
	C173.772278,1925.382080 220.927246,1944.959473 270.157532,1959.403687 
	C304.583221,1969.504272 339.483398,1976.263062 375.467316,1973.866455 
	C420.100922,1970.894165 459.904572,1956.347046 489.425262,1920.922729 
	C497.560272,1911.160767 504.020172,1899.883179 510.420227,1888.821777 
	C521.416138,1869.817627 531.017578,1849.976074 542.566406,1831.329712 
	C557.082336,1807.892822 578.758789,1793.121582 604.984802,1785.005371 
	C629.368286,1777.459351 654.235718,1776.210693 679.544861,1778.724609 
	C706.662354,1781.417847 732.969604,1787.921997 759.248718,1794.588379 
	C790.753845,1802.580811 822.509460,1809.447510 854.948547,1811.619385 
	C877.982849,1813.161621 901.212952,1813.747192 924.258545,1812.673584 
	C956.043884,1811.192871 987.012207,1804.747192 1015.708008,1790.098267 
	C1040.505005,1777.439819 1059.403809,1758.980103 1071.490356,1733.584717 
	C1079.281128,1717.215332 1079.862061,1700.959473 1071.340820,1685.116211 
	C1061.020752,1665.928345 1049.982910,1647.114136 1038.855103,1628.376099 
	C1024.872559,1604.831055 1021.825500,1579.356689 1024.586548,1552.750488 
	C1025.186523,1546.968750 1026.365112,1541.249390 1027.171631,1535.486450 
	C1028.578125,1525.435059 1032.925171,1517.005493 1039.956787,1509.607666 
	C1057.229370,1491.435669 1076.507202,1475.601807 1096.360107,1460.428589 
	C1114.894653,1446.263184 1133.804321,1432.437500 1147.423584,1413.105469 
	C1158.027100,1398.054199 1165.486938,1381.268311 1171.735229,1363.994995 
	C1178.651001,1344.876587 1186.350952,1326.110962 1197.162231,1308.835083 
	C1209.637207,1288.901001 1223.940430,1270.683838 1245.629761,1259.728271 
	C1263.723755,1250.588989 1283.298340,1246.651245 1302.972656,1243.133179 
	C1312.948853,1241.348999 1323.058228,1240.308960 1333.553711,1238.966309 
	C1334.000000,1492.951050 1334.000000,1746.901978 1334.000000,2000.926514 
	C889.666687,2000.926514 445.333344,2000.926514 1.000000,2000.926514 
	C1.000000,1943.915161 1.000000,1886.926147 1.000006,1829.468628 
z"/>
</svg>